<mxfile host="app.diagrams.net" agent="Mozilla/5.0 (Macintosh; Intel Mac OS X 10_15_7) AppleWebKit/605.1.15 (KHTML, like Gecko) Version/17.5 Safari/605.1.15" version="24.7.6">
  <diagram name="Page-1" id="mc4gksa36mkFXbbOVomd">
    <mxGraphModel dx="1348" dy="1004" grid="0" gridSize="10" guides="1" tooltips="1" connect="1" arrows="1" fold="1" page="0" pageScale="1" pageWidth="850" pageHeight="1100" math="0" shadow="0">
      <root>
        <mxCell id="0" />
        <mxCell id="1" parent="0" />
        <mxCell id="KUJzeEmUjwlKIUor0_Qf-3" value="&lt;h1 style=&quot;margin-top: 0px;&quot;&gt;Functional Requirements&lt;/h1&gt;&lt;p&gt;* As a user I would like to share text via a url with other people&lt;/p&gt;&lt;p&gt;* Pastes have an expiration&lt;/p&gt;&lt;p&gt;* Users should be able to pick a custom alias&lt;/p&gt;" style="text;html=1;whiteSpace=wrap;overflow=hidden;rounded=0;" vertex="1" parent="1">
          <mxGeometry x="-155" y="-99" width="518" height="120" as="geometry" />
        </mxCell>
      </root>
    </mxGraphModel>
  </diagram>
</mxfile>
